<mxfile host="app.diagrams.net" modified="2023-04-25T20:08:37.306Z" agent="Mozilla/5.0 (X11; Linux x86_64) AppleWebKit/537.36 (KHTML, like Gecko) Chrome/102.0.0.0 Safari/537.36" etag="Jl7YNg8SXuHTWrmPbVkf" version="21.1.2" type="device">
  <diagram name="Page-1" id="QWzBY7XkXssWipUI9waE">
    <mxGraphModel dx="1153" dy="550" grid="1" gridSize="10" guides="1" tooltips="1" connect="1" arrows="1" fold="1" page="1" pageScale="1" pageWidth="827" pageHeight="1169" math="0" shadow="0">
      <root>
        <mxCell id="0" />
        <mxCell id="1" parent="0" />
        <mxCell id="uSoJ-CjhBa_HqkwYfEmV-5" value="" style="group" vertex="1" connectable="0" parent="1">
          <mxGeometry x="263" y="40" width="150.4" height="110" as="geometry" />
        </mxCell>
        <mxCell id="uSoJ-CjhBa_HqkwYfEmV-6" value="" style="rounded=1;whiteSpace=wrap;html=1;fontSize=12;fillColor=#5cc989;" vertex="1" parent="uSoJ-CjhBa_HqkwYfEmV-5">
          <mxGeometry width="150.4" height="60" as="geometry" />
        </mxCell>
        <mxCell id="uSoJ-CjhBa_HqkwYfEmV-7" value="&lt;font style=&quot;font-size: 16px;&quot;&gt;&lt;b&gt;Web App&lt;/b&gt;&lt;/font&gt;" style="text;html=1;strokeColor=none;fillColor=none;align=center;verticalAlign=middle;whiteSpace=wrap;rounded=0;fontSize=12;" vertex="1" parent="uSoJ-CjhBa_HqkwYfEmV-5">
          <mxGeometry x="37.6" width="75.2" height="30" as="geometry" />
        </mxCell>
        <mxCell id="uSoJ-CjhBa_HqkwYfEmV-8" value="&lt;i&gt;(Lab, Notebook, ...)&lt;/i&gt;" style="text;html=1;strokeColor=none;fillColor=none;align=center;verticalAlign=middle;whiteSpace=wrap;rounded=0;fontSize=12;" vertex="1" parent="uSoJ-CjhBa_HqkwYfEmV-5">
          <mxGeometry x="10.650173669467788" y="30" width="129.09333333333333" height="30" as="geometry" />
        </mxCell>
        <mxCell id="uSoJ-CjhBa_HqkwYfEmV-30" value="" style="group" vertex="1" connectable="0" parent="uSoJ-CjhBa_HqkwYfEmV-5">
          <mxGeometry x="5.199999999999989" y="50" width="140" height="60" as="geometry" />
        </mxCell>
        <mxCell id="uSoJ-CjhBa_HqkwYfEmV-31" value="" style="rounded=1;whiteSpace=wrap;html=1;labelBackgroundColor=none;fontSize=20;fillColor=#FFB570;" vertex="1" parent="uSoJ-CjhBa_HqkwYfEmV-30">
          <mxGeometry width="140" height="40" as="geometry" />
        </mxCell>
        <mxCell id="uSoJ-CjhBa_HqkwYfEmV-32" value="&lt;b&gt;&lt;font style=&quot;font-size: 16px;&quot;&gt;&quot;widgets.js&quot;&lt;/font&gt;&lt;/b&gt;" style="text;html=1;strokeColor=none;fillColor=none;align=center;verticalAlign=middle;whiteSpace=wrap;rounded=0;labelBackgroundColor=none;fontSize=12;" vertex="1" parent="uSoJ-CjhBa_HqkwYfEmV-30">
          <mxGeometry x="35" width="70" height="30" as="geometry" />
        </mxCell>
        <mxCell id="uSoJ-CjhBa_HqkwYfEmV-15" value="" style="group" vertex="1" connectable="0" parent="1">
          <mxGeometry x="490" y="280" width="145" height="60" as="geometry" />
        </mxCell>
        <mxCell id="uSoJ-CjhBa_HqkwYfEmV-11" value="" style="rounded=1;whiteSpace=wrap;html=1;labelBackgroundColor=none;fontSize=20;fillColor=#ffe97b;container=0;" vertex="1" parent="uSoJ-CjhBa_HqkwYfEmV-15">
          <mxGeometry x="5" width="140" height="60" as="geometry" />
        </mxCell>
        <mxCell id="uSoJ-CjhBa_HqkwYfEmV-12" value="&lt;b&gt;&lt;font style=&quot;font-size: 16px;&quot;&gt;xeus-cling&lt;/font&gt;&lt;/b&gt;" style="text;html=1;strokeColor=none;fillColor=none;align=center;verticalAlign=middle;whiteSpace=wrap;rounded=0;labelBackgroundColor=none;fontSize=12;container=0;" vertex="1" parent="uSoJ-CjhBa_HqkwYfEmV-15">
          <mxGeometry x="15" width="110" height="30" as="geometry" />
        </mxCell>
        <mxCell id="uSoJ-CjhBa_HqkwYfEmV-13" value="&lt;i&gt;C++ kernel based on xeus&lt;/i&gt;" style="text;whiteSpace=wrap;html=1;fontSize=12;align=center;container=0;" vertex="1" parent="uSoJ-CjhBa_HqkwYfEmV-15">
          <mxGeometry y="20" width="140" height="30" as="geometry" />
        </mxCell>
        <mxCell id="uSoJ-CjhBa_HqkwYfEmV-16" value="" style="group" vertex="1" connectable="0" parent="1">
          <mxGeometry x="50" y="280" width="140" height="60" as="geometry" />
        </mxCell>
        <mxCell id="uSoJ-CjhBa_HqkwYfEmV-17" value="" style="rounded=1;whiteSpace=wrap;html=1;labelBackgroundColor=none;fontSize=20;fillColor=#ffe97b;" vertex="1" parent="uSoJ-CjhBa_HqkwYfEmV-16">
          <mxGeometry width="140" height="60" as="geometry" />
        </mxCell>
        <mxCell id="uSoJ-CjhBa_HqkwYfEmV-18" value="&lt;b&gt;&lt;font style=&quot;font-size: 16px;&quot;&gt;ipykernel&lt;/font&gt;&lt;/b&gt;" style="text;html=1;strokeColor=none;fillColor=none;align=center;verticalAlign=middle;whiteSpace=wrap;rounded=0;labelBackgroundColor=none;fontSize=12;" vertex="1" parent="uSoJ-CjhBa_HqkwYfEmV-16">
          <mxGeometry x="35" width="70" height="30" as="geometry" />
        </mxCell>
        <mxCell id="uSoJ-CjhBa_HqkwYfEmV-19" value="&lt;i&gt;IPython kernel for Jupyter&lt;/i&gt;" style="text;whiteSpace=wrap;html=1;fontSize=12;align=center;" vertex="1" parent="uSoJ-CjhBa_HqkwYfEmV-16">
          <mxGeometry y="30" width="140" height="30" as="geometry" />
        </mxCell>
        <mxCell id="uSoJ-CjhBa_HqkwYfEmV-21" value="" style="group" vertex="1" connectable="0" parent="1">
          <mxGeometry x="160" y="240" width="140" height="60" as="geometry" />
        </mxCell>
        <mxCell id="uSoJ-CjhBa_HqkwYfEmV-22" value="" style="rounded=1;whiteSpace=wrap;html=1;labelBackgroundColor=none;fontSize=20;fillColor=#FFB570;" vertex="1" parent="uSoJ-CjhBa_HqkwYfEmV-21">
          <mxGeometry width="140" height="60" as="geometry" />
        </mxCell>
        <mxCell id="uSoJ-CjhBa_HqkwYfEmV-23" value="&lt;b&gt;&lt;font style=&quot;font-size: 16px;&quot;&gt;ipywidgets&lt;/font&gt;&lt;/b&gt;" style="text;html=1;strokeColor=none;fillColor=none;align=center;verticalAlign=middle;whiteSpace=wrap;rounded=0;labelBackgroundColor=none;fontSize=12;" vertex="1" parent="uSoJ-CjhBa_HqkwYfEmV-21">
          <mxGeometry x="35" width="70" height="30" as="geometry" />
        </mxCell>
        <mxCell id="uSoJ-CjhBa_HqkwYfEmV-24" value="&lt;i&gt;backend to Jupyter web applications&lt;/i&gt;" style="text;whiteSpace=wrap;html=1;fontSize=12;align=center;" vertex="1" parent="uSoJ-CjhBa_HqkwYfEmV-21">
          <mxGeometry y="20" width="140" height="40" as="geometry" />
        </mxCell>
        <mxCell id="uSoJ-CjhBa_HqkwYfEmV-26" value="" style="group" vertex="1" connectable="0" parent="1">
          <mxGeometry x="380" y="240" width="140" height="60" as="geometry" />
        </mxCell>
        <mxCell id="uSoJ-CjhBa_HqkwYfEmV-27" value="" style="rounded=1;whiteSpace=wrap;html=1;labelBackgroundColor=none;fontSize=20;fillColor=#FFB570;" vertex="1" parent="uSoJ-CjhBa_HqkwYfEmV-26">
          <mxGeometry width="140" height="60" as="geometry" />
        </mxCell>
        <mxCell id="uSoJ-CjhBa_HqkwYfEmV-28" value="&lt;b&gt;&lt;font style=&quot;font-size: 16px;&quot;&gt;xwidgets&lt;/font&gt;&lt;/b&gt;" style="text;html=1;strokeColor=none;fillColor=none;align=center;verticalAlign=middle;whiteSpace=wrap;rounded=0;labelBackgroundColor=none;fontSize=12;" vertex="1" parent="uSoJ-CjhBa_HqkwYfEmV-26">
          <mxGeometry x="35" width="70" height="30" as="geometry" />
        </mxCell>
        <mxCell id="uSoJ-CjhBa_HqkwYfEmV-29" value="&lt;i&gt;C++ backend for ipywidgets&lt;/i&gt;" style="text;whiteSpace=wrap;html=1;fontSize=12;align=center;" vertex="1" parent="uSoJ-CjhBa_HqkwYfEmV-26">
          <mxGeometry y="20" width="140" height="40" as="geometry" />
        </mxCell>
        <mxCell id="uSoJ-CjhBa_HqkwYfEmV-35" value="" style="endArrow=classic;startArrow=classic;html=1;rounded=0;entryX=0.25;entryY=1;entryDx=0;entryDy=0;exitX=0.5;exitY=0;exitDx=0;exitDy=0;" edge="1" parent="1" source="uSoJ-CjhBa_HqkwYfEmV-23" target="uSoJ-CjhBa_HqkwYfEmV-31">
          <mxGeometry width="50" height="50" relative="1" as="geometry">
            <mxPoint x="230" y="200" as="sourcePoint" />
            <mxPoint x="280" y="150" as="targetPoint" />
          </mxGeometry>
        </mxCell>
        <mxCell id="uSoJ-CjhBa_HqkwYfEmV-36" value="" style="endArrow=classic;startArrow=classic;html=1;rounded=0;entryX=0.75;entryY=1;entryDx=0;entryDy=0;exitX=0.25;exitY=0;exitDx=0;exitDy=0;" edge="1" parent="1" source="uSoJ-CjhBa_HqkwYfEmV-28" target="uSoJ-CjhBa_HqkwYfEmV-31">
          <mxGeometry width="50" height="50" relative="1" as="geometry">
            <mxPoint x="230" y="200" as="sourcePoint" />
            <mxPoint x="280" y="150" as="targetPoint" />
          </mxGeometry>
        </mxCell>
        <mxCell id="uSoJ-CjhBa_HqkwYfEmV-37" value="Widget&lt;br&gt;protocol" style="text;html=1;strokeColor=none;fillColor=none;align=center;verticalAlign=middle;whiteSpace=wrap;rounded=0;" vertex="1" parent="1">
          <mxGeometry x="290" y="160" width="100" height="30" as="geometry" />
        </mxCell>
      </root>
    </mxGraphModel>
  </diagram>
</mxfile>
